<?xml version="1.0" standalone="no"?>
<!DOCTYPE svg PUBLIC "-//W3C//DTD SVG 20010904//EN"
 "http://www.w3.org/TR/2001/REC-SVG-20010904/DTD/svg10.dtd">
<svg version="1.0" xmlns="http://www.w3.org/2000/svg"
 width="260.000000pt" height="260.000000pt" viewBox="0 0 260.000000 260.000000"
 preserveAspectRatio="xMidYMid meet">
<metadata>
Created by potrace 1.11, written by Peter Selinger 2001-2013
</metadata>
<g transform="translate(0.000000,260.000000) scale(0.100000,-0.100000)"
fill="#000000" stroke="none">
<path d="M1349 2386 c-2 -2 -35 -7 -73 -10 -38 -3 -71 -7 -73 -10 -2 -2 18 -7
44 -11 347 -50 673 -336 781 -685 35 -116 47 -265 29 -389 -29 -209 -171 -429
-364 -567 -396 -284 -904 -204 -1087 170 -49 100 -56 128 -61 237 -10 191 92
359 269 444 80 38 119 46 226 49 133 4 237 -31 313 -108 84 -84 110 -192 66
-279 -37 -72 -100 -115 -192 -131 l-37 -7 26 38 c21 31 24 46 20 80 -6 49 -27
85 -59 102 -89 47 -208 -10 -237 -114 -37 -131 77 -250 250 -263 184 -13 355
80 431 233 38 79 44 108 43 225 0 114 -26 200 -86 290 -106 160 -280 249 -491
253 -83 1 -212 -9 -226 -17 -3 -2 -22 -7 -42 -10 -63 -10 -221 -66 -313 -112
-210 -105 -337 -233 -432 -438 -93 -203 -95 -433 -3 -606 75 -144 208 -271
379 -363 86 -46 235 -102 305 -113 20 -3 47 -8 59 -10 95 -20 404 -26 526 -11
527 64 999 404 1168 842 57 147 70 209 79 385 17 348 -145 620 -464 779 -109
54 -215 87 -383 116 -42 8 -384 17 -391 11z"/>
</g>
</svg>
